<svg xmlns="http://www.w3.org/2000/svg" viewBox="0 0 24 24" height="24" width="24"><desc>Content Files Newspaper Streamline Icon: https://streamlinehq.com</desc><title>content-files-newspaper</title><g><path d="M22.63545 6.402975H23.759999999999998V20.963325H22.63545Z" fill="#000000" stroke-width="1"></path><path d="M21.51825 20.963325H22.63545V22.080525H21.51825Z" fill="#000000" stroke-width="1"></path><path d="M20.401049999999998 8.644725000000001H21.51825V19.838775H20.401049999999998Z" fill="#000000" stroke-width="1"></path><path d="M20.401049999999998 20.963325H19.276500000000002V22.080525H2.48175V23.197725H21.51825V22.080525H20.401049999999998V20.963325Z" fill="#000000" stroke-width="1"></path><path d="M18.159299999999998 20.963325H19.276500000000002V6.402975H22.63545V5.2784249999999995H19.276500000000002V1.9194749999999998H18.159299999999998V20.963325Z" fill="#000000" stroke-width="1"></path><path d="M4.71615 19.838775H17.042099999999998V20.963325H4.71615Z" fill="#000000" stroke-width="1"></path><path d="M13.6758 10.879125H17.042099999999998V14.238075000000002H13.6758Z" fill="#000000" stroke-width="1"></path><path d="M9.19965 10.879125H12.558600000000002V12.003675H9.19965Z" fill="#000000" stroke-width="1"></path><path d="M9.19965 13.120874999999998H12.558600000000002V14.238075000000002H9.19965Z" fill="#000000" stroke-width="1"></path><path d="M2.48175 17.604375H17.042099999999998V18.721575H2.48175Z" fill="#000000" stroke-width="1"></path><path d="M2.48175 15.362625H17.042099999999998V16.479824999999998H2.48175Z" fill="#000000" stroke-width="1"></path><path d="M2.48175 13.120874999999998H8.08245V14.238075000000002H2.48175Z" fill="#000000" stroke-width="1"></path><path d="M2.48175 10.879125H8.08245V12.003675H2.48175Z" fill="#000000" stroke-width="1"></path><path d="M17.042099999999998 9.761925V4.1649H2.48175V9.7656ZM3.5989500000000003 5.2784249999999995H8.08245V6.402975H6.9579V7.520175H5.8407V8.6484H3.5989500000000003Z" fill="#000000" stroke-width="1"></path><path d="M1.3572000000000002 0.8022750000000001H18.159299999999998V1.9194749999999998H1.3572000000000002Z" fill="#000000" stroke-width="1"></path><path d="M1.3572000000000002 20.963325H2.48175V22.080525H1.3572000000000002Z" fill="#000000" stroke-width="1"></path><path d="M0.24 1.9194749999999998H1.3572000000000002V20.963325H0.24Z" fill="#000000" stroke-width="1"></path></g></svg>