<svg xmlns="http://www.w3.org/2000/svg" fill="none" viewBox="0 0 24 24" height="24" width="24"><desc>Hotel Room Streamline Icon: https://streamlinehq.com</desc><path stroke="#000000" d="M2.1216 17.1744V12.9408L2.7576 12.7677C8.8087 11.1173 15.1913 11.1173 21.2424 12.7677L21.8784 12.9408V17.1744M2.1216 17.1744S2.1216 19.9968 0.7104 19.9968M2.1216 17.1744H21.8784M21.8784 17.1744S21.8784 19.9968 23.2896 19.9968M4.0032 10.1184C4.0032 8.2472 3.7238 6.3872 3.1734 4.5987L3.0624 4.2384V4.0032H20.9376V4.2384L20.8266 4.5987C20.2764 6.387 19.9967 8.2474 19.9968 10.1184M12 6.8256H6.8256V10.1184M12 6.8256V10.1184M12 6.8256H17.1744V10.1184" stroke-width="1"></path></svg>