<svg xmlns="http://www.w3.org/2000/svg" viewBox="0 0 24 24" height="24" width="24"><title>interface-essential-cog-browser</title><g><g><path d="m22.8525 4.574999999999999 -21.7125 0 0 -3.4275 -1.1400000000000001 0 0 21.7125 1.1400000000000001 0 0 -17.145 21.7125 0 0 17.145 1.1475 0 0 -21.7125 -1.1475 0 0 3.4275z" fill="#000000" stroke-width="1"></path><path d="M1.1400000000000001 22.86h21.7125V24H1.1400000000000001Z" fill="#000000" stroke-width="1"></path><path d="M17.145 17.145h1.1400000000000001v1.1400000000000001h-1.1400000000000001Z" fill="#000000" stroke-width="1"></path><path d="m17.145 13.7175 1.1400000000000001 0 0 1.1400000000000001 -1.1400000000000001 0 0 1.1475 2.2800000000000002 0 0 -3.435 -2.2800000000000002 0 0 1.1475z" fill="#000000" stroke-width="1"></path><path d="M17.145 10.290000000000001h1.1400000000000001v1.1400000000000001h-1.1400000000000001Z" fill="#000000" stroke-width="1"></path><path d="M15.997499999999999 18.285h1.1475v1.1475h-1.1475Z" fill="#000000" stroke-width="1"></path><path d="M15.997499999999999 16.005h1.1475v1.1400000000000001h-1.1475Z" fill="#000000" stroke-width="1"></path><path d="M15.997499999999999 11.43h1.1475v1.1400000000000001h-1.1475Z" fill="#000000" stroke-width="1"></path><path d="M15.997499999999999 9.1425h1.1475v1.1475h-1.1475Z" fill="#000000" stroke-width="1"></path><path d="M14.857499999999998 19.4325h1.1400000000000001v1.1400000000000001h-1.1400000000000001Z" fill="#000000" stroke-width="1"></path><path d="M14.857499999999998 8.0025h1.1400000000000001v1.1400000000000001h-1.1400000000000001Z" fill="#000000" stroke-width="1"></path><path d="M13.71 18.285h1.1475v1.1475h-1.1475Z" fill="#000000" stroke-width="1"></path><path d="M13.71 12.57h1.1475v3.435h-1.1475Z" fill="#000000" stroke-width="1"></path><path d="M13.71 9.1425h1.1475v1.1475h-1.1475Z" fill="#000000" stroke-width="1"></path><path d="m12.57 20.572499999999998 -1.1400000000000001 0 0 -1.1400000000000001 -1.1475 0 0 2.2800000000000002 3.4275 0 0 -2.2800000000000002 -1.1400000000000001 0 0 1.1400000000000001z" fill="#000000" stroke-width="1"></path><path d="M10.2825 16.005h3.4275v1.1400000000000001h-3.4275Z" fill="#000000" stroke-width="1"></path><path d="M10.2825 11.43h3.4275v1.1400000000000001h-3.4275Z" fill="#000000" stroke-width="1"></path><path d="m11.43 8.0025 1.1400000000000001 0 0 1.1400000000000001 1.1400000000000001 0 0 -2.2800000000000002 -3.4275 0 0 2.2800000000000002 1.1475 0 0 -1.1400000000000001z" fill="#000000" stroke-width="1"></path><path d="M9.1425 18.285h1.1400000000000001v1.1475h-1.1400000000000001Z" fill="#000000" stroke-width="1"></path><path d="M9.1425 12.57h1.1400000000000001v3.435h-1.1400000000000001Z" fill="#000000" stroke-width="1"></path><path d="M9.1425 9.1425h1.1400000000000001v1.1475h-1.1400000000000001Z" fill="#000000" stroke-width="1"></path><path d="M8.0025 19.4325h1.1400000000000001v1.1400000000000001h-1.1400000000000001Z" fill="#000000" stroke-width="1"></path><path d="M8.0025 8.0025h1.1400000000000001v1.1400000000000001h-1.1400000000000001Z" fill="#000000" stroke-width="1"></path><path d="M6.855 18.285h1.1475v1.1475H6.855Z" fill="#000000" stroke-width="1"></path><path d="M6.855 16.005h1.1475v1.1400000000000001H6.855Z" fill="#000000" stroke-width="1"></path><path d="M6.855 11.43h1.1475v1.1400000000000001H6.855Z" fill="#000000" stroke-width="1"></path><path d="M6.855 9.1425h1.1475v1.1475H6.855Z" fill="#000000" stroke-width="1"></path><path d="M6.855 2.2874999999999996h1.1475v1.1400000000000001H6.855Z" fill="#000000" stroke-width="1"></path><path d="M5.715 17.145h1.1400000000000001v1.1400000000000001H5.715Z" fill="#000000" stroke-width="1"></path><path d="m5.715 14.857499999999998 0 -1.1400000000000001 1.1400000000000001 0 0 -1.1475 -2.2874999999999996 0 0 3.435 2.2874999999999996 0 0 -1.1475 -1.1400000000000001 0z" fill="#000000" stroke-width="1"></path><path d="M5.715 10.290000000000001h1.1400000000000001v1.1400000000000001H5.715Z" fill="#000000" stroke-width="1"></path><path d="M4.5675 2.2874999999999996h1.1475v1.1400000000000001H4.5675Z" fill="#000000" stroke-width="1"></path><path d="M2.2874999999999996 2.2874999999999996h1.1400000000000001v1.1400000000000001H2.2874999999999996Z" fill="#000000" stroke-width="1"></path></g><path d="M1.1400000000000001 0h21.7125v1.1475H1.1400000000000001Z" fill="#000000" stroke-width="1"></path></g></svg>